HIERARCHY
ROOT Root
{
OFFSET 0.000000 0.000000 0.000000
  CHANNELS 6 Xposition Yposition Zposition Zrotation Yrotation Xrotation
 JOINT Hips
 {
   OFFSET -1.184787 81.274963 -3.056084
   CHANNELS 6 Xposition Yposition Zposition Zrotation Yrotation Xrotation
  JOINT Spine1
  {
    OFFSET 4.584116 0.616289 0.039329
    CHANNELS 3 Zrotation Yrotation Xrotation
   JOINT Spine2
   {
     OFFSET 6.560427 -0.000000 -0.000000
     CHANNELS 3 Zrotation Yrotation Xrotation
    JOINT Chest
    {
      OFFSET 6.842717 -0.000000 0.000000
      CHANNELS 3 Zrotation Yrotation Xrotation
     JOINT Neck1
     {
       OFFSET 23.722427 -1.018132 -0.205872
       CHANNELS 3 Zrotation Yrotation Xrotation
      JOINT Neck2
      {
        OFFSET 7.193078 -0.000004 0.000000
        CHANNELS 3 Zrotation Yrotation Xrotation
       JOINT Head
       {
         OFFSET 6.367884 -0.000004 -0.000000
         CHANNELS 3 Zrotation Yrotation Xrotation
        JOINT HeadEnd
        {
          OFFSET 16.017109 0.349886 0.008255
          CHANNELS 3 Zrotation Yrotation Xrotation
        }
        JOINT Jaw
        {
          OFFSET 0.156716 3.267087 0.007317
          CHANNELS 3 Zrotation Yrotation Xrotation
        }
        JOINT LeftEye
        {
          OFFSET 4.836200 8.389617 3.167102
          CHANNELS 3 Zrotation Yrotation Xrotation
        }
        JOINT RightEye
        {
          OFFSET 4.846505 8.369821 -3.232471
          CHANNELS 3 Zrotation Yrotation Xrotation
        }
       }
      }
     }
     JOINT LeftShoulder
     {
       OFFSET 20.276909 4.867679 1.653456
       CHANNELS 3 Zrotation Yrotation Xrotation
      JOINT LeftArm
      {
        OFFSET 16.890688 -0.000004 -0.000014
        CHANNELS 3 Zrotation Yrotation Xrotation
       JOINT LeftForeArm
       {
         OFFSET 23.411856 -0.000001 0.000006
         CHANNELS 3 Zrotation Yrotation Xrotation
        JOINT LeftHand
        {
          OFFSET 21.456329 -0.000008 0.000004
          CHANNELS 3 Zrotation Yrotation Xrotation
         JOINT LeftHandThumb1
         {
           OFFSET 1.920952 3.203604 0.806868
           CHANNELS 3 Zrotation Yrotation Xrotation
          JOINT LeftHandThumb2
          {
            OFFSET 4.636127 0.000000 -0.000002
            CHANNELS 3 Zrotation Yrotation Xrotation
           JOINT LeftHandThumb3
           {
             OFFSET 2.696877 -0.000004 -0.000003
             CHANNELS 3 Zrotation Yrotation Xrotation
            JOINT LeftHandThumbEnd
            {
              OFFSET 3.104532 0.000000 -0.000005
              CHANNELS 3 Zrotation Yrotation Xrotation
            }
           }
          }
         }
         JOINT LeftHandIndex1
         {
           OFFSET 2.975243 2.252022 0.098866
           CHANNELS 3 Zrotation Yrotation Xrotation
          JOINT LeftHandIndex2
          {
            OFFSET 6.460117 0.000000 0.000000
            CHANNELS 3 Zrotation Yrotation Xrotation
           JOINT LeftHandIndex3
           {
             OFFSET 3.494682 0.000000 0.000004
             CHANNELS 3 Zrotation Yrotation Xrotation
            JOINT LeftHandIndex4
            {
              OFFSET 2.150097 0.000002 -0.000011
              CHANNELS 3 Zrotation Yrotation Xrotation
             JOINT LeftHandIndexEnd
             {
               OFFSET 2.558205 -0.000000 0.000000
               CHANNELS 3 Zrotation Yrotation Xrotation
             }
            }
           }
          }
         }
         JOINT LeftHandMiddle1
         {
           OFFSET 2.921314 0.872583 -0.418243
           CHANNELS 3 Zrotation Yrotation Xrotation
          JOINT LeftHandMiddle2
          {
            OFFSET 6.266438 -0.000001 -0.000008
            CHANNELS 3 Zrotation Yrotation Xrotation
           JOINT LeftHandMiddle3
           {
             OFFSET 4.182251 -0.000002 0.000000
             CHANNELS 3 Zrotation Yrotation Xrotation
            JOINT LeftHandMiddle4
            {
              OFFSET 2.848408 -0.000000 0.000004
              CHANNELS 3 Zrotation Yrotation Xrotation
             JOINT LeftHandMiddleEnd
             {
               OFFSET 2.274059 0.000003 -0.000004
               CHANNELS 3 Zrotation Yrotation Xrotation
             }
            }
           }
          }
         }
         JOINT LeftHandRing1
         {
           OFFSET 2.623413 -0.398476 0.133955
           CHANNELS 3 Zrotation Yrotation Xrotation
          JOINT LeftHandRing2
          {
            OFFSET 5.977928 -0.000001 0.000004
            CHANNELS 3 Zrotation Yrotation Xrotation
           JOINT LeftHandRing3
           {
             OFFSET 4.155861 -0.000001 -0.000004
             CHANNELS 3 Zrotation Yrotation Xrotation
            JOINT LeftHandRing4
            {
              OFFSET 2.507332 0.000002 -0.000004
              CHANNELS 3 Zrotation Yrotation Xrotation
             JOINT LeftHandRingEnd
             {
               OFFSET 1.865707 -0.000003 -0.000004
               CHANNELS 3 Zrotation Yrotation Xrotation
             }
            }
           }
          }
         }
         JOINT LeftHandPinky1
         {
           OFFSET 2.578148 -1.668503 0.571510
           CHANNELS 3 Zrotation Yrotation Xrotation
          JOINT LeftHandPinky2
          {
            OFFSET 5.271790 -0.000002 0.000004
            CHANNELS 3 Zrotation Yrotation Xrotation
           JOINT LeftHandPinky3
           {
             OFFSET 3.113895 0.000002 0.000000
             CHANNELS 3 Zrotation Yrotation Xrotation
            JOINT LeftHandPinky4
            {
              OFFSET 1.752159 0.000001 0.000004
              CHANNELS 3 Zrotation Yrotation Xrotation
             JOINT LeftHandPinkyEnd
             {
               OFFSET 1.962650 -0.000001 -0.000004
               CHANNELS 3 Zrotation Yrotation Xrotation
             }
            }
           }
          }
         }
        }
       }
      }
     }
     JOINT RightShoulder
     {
       OFFSET 20.224409 5.036999 -1.542081
       CHANNELS 3 Zrotation Yrotation Xrotation
      JOINT RightArm
      {
        OFFSET -16.961349 0.000000 0.000006
        CHANNELS 3 Zrotation Yrotation Xrotation
       JOINT RightForeArm
       {
         OFFSET -23.435434 0.000011 -0.000004
         CHANNELS 3 Zrotation Yrotation Xrotation
        JOINT RightHand
        {
          OFFSET -21.463356 0.000003 0.000000
          CHANNELS 3 Zrotation Yrotation Xrotation
         JOINT RightHandThumb1
         {
           OFFSET -1.920597 -3.203911 -0.807020
           CHANNELS 3 Zrotation Yrotation Xrotation
          JOINT RightHandThumb2
          {
            OFFSET -4.636414 0.000004 0.000000
            CHANNELS 3 Zrotation Yrotation Xrotation
           JOINT RightHandThumb3
           {
             OFFSET -2.696846 0.000000 -0.000003
             CHANNELS 3 Zrotation Yrotation Xrotation
            JOINT RightHandThumbEnd
            {
              OFFSET -3.105059 0.000000 0.000003
              CHANNELS 3 Zrotation Yrotation Xrotation
            }
           }
          }
         }
         JOINT RightHandIndex1
         {
           OFFSET -2.975643 -2.251678 -0.099384
           CHANNELS 3 Zrotation Yrotation Xrotation
          JOINT RightHandIndex2
          {
            OFFSET -6.459900 -0.000002 0.000000
            CHANNELS 3 Zrotation Yrotation Xrotation
           JOINT RightHandIndex3
           {
             OFFSET -3.493870 0.000000 -0.000004
             CHANNELS 3 Zrotation Yrotation Xrotation
            JOINT RightHandIndex4
            {
              OFFSET -2.149509 -0.000001 0.000000
              CHANNELS 3 Zrotation Yrotation Xrotation
             JOINT RightHandIndexEnd
             {
               OFFSET -2.558117 0.000001 0.000004
               CHANNELS 3 Zrotation Yrotation Xrotation
             }
            }
           }
          }
         }
         JOINT RightHandMiddle1
         {
           OFFSET -2.921402 -0.872435 0.418428
           CHANNELS 3 Zrotation Yrotation Xrotation
          JOINT RightHandMiddle2
          {
            OFFSET -6.266792 -0.000001 0.000000
            CHANNELS 3 Zrotation Yrotation Xrotation
           JOINT RightHandMiddle3
           {
             OFFSET -4.181046 0.000000 0.000004
             CHANNELS 3 Zrotation Yrotation Xrotation
            JOINT RightHandMiddle4
            {
              OFFSET -2.847351 0.000002 -0.000011
              CHANNELS 3 Zrotation Yrotation Xrotation
             JOINT RightHandMiddleEnd
             {
               OFFSET -2.274460 -0.000001 0.000000
               CHANNELS 3 Zrotation Yrotation Xrotation
             }
            }
           }
          }
         }
         JOINT RightHandRing1
         {
           OFFSET -2.623238 0.398449 -0.133396
           CHANNELS 3 Zrotation Yrotation Xrotation
          JOINT RightHandRing2
          {
            OFFSET -5.978161 0.000000 0.000008
            CHANNELS 3 Zrotation Yrotation Xrotation
           JOINT RightHandRing3
           {
             OFFSET -4.155052 0.000001 0.000004
             CHANNELS 3 Zrotation Yrotation Xrotation
            JOINT RightHandRing4
            {
              OFFSET -2.506302 -0.000001 0.000000
              CHANNELS 3 Zrotation Yrotation Xrotation
             JOINT RightHandRingEnd
             {
               OFFSET -1.866291 0.000004 0.000004
               CHANNELS 3 Zrotation Yrotation Xrotation
             }
            }
           }
          }
         }
         JOINT RightHandPinky1
         {
           OFFSET -2.577694 1.668344 -0.571529
           CHANNELS 3 Zrotation Yrotation Xrotation
          JOINT RightHandPinky2
          {
            OFFSET -5.271774 0.000000 0.000000
            CHANNELS 3 Zrotation Yrotation Xrotation
           JOINT RightHandPinky3
           {
             OFFSET -3.113079 0.000000 0.000000
             CHANNELS 3 Zrotation Yrotation Xrotation
            JOINT RightHandPinky4
            {
              OFFSET -1.752010 0.000001 -0.000004
              CHANNELS 3 Zrotation Yrotation Xrotation
             JOINT RightHandPinkyEnd
             {
               OFFSET -1.963303 0.000000 0.000000
               CHANNELS 3 Zrotation Yrotation Xrotation
             }
            }
           }
          }
         }
        }
       }
      }
     }
    }
   }
  }
  JOINT LeftLeg
  {
    OFFSET -7.570579 2.236628 9.250011
    CHANNELS 3 Zrotation Yrotation Xrotation
   JOINT LeftShin
   {
     OFFSET 34.267693 0.000001 0.000002
     CHANNELS 3 Zrotation Yrotation Xrotation
    JOINT LeftFoot
    {
      OFFSET 36.139652 0.000001 0.000003
      CHANNELS 3 Zrotation Yrotation Xrotation
     JOINT LeftToeBase
     {
       OFFSET 14.663917 0.000001 0.000001
       CHANNELS 3 Zrotation Yrotation Xrotation
      JOINT LeftToeEnd
      {
        OFFSET 7.147515 -0.124760 0.000000
        CHANNELS 3 Zrotation Yrotation Xrotation
      }
     }
    }
   }
  }
  JOINT RightLeg
  {
    OFFSET -7.507166 2.507522 -9.219584
    CHANNELS 3 Zrotation Yrotation Xrotation
   JOINT RightShin
   {
     OFFSET -34.262222 -0.000002 0.000001
     CHANNELS 3 Zrotation Yrotation Xrotation
    JOINT RightFoot
    {
      OFFSET -36.139442 -0.000000 -0.000001
      CHANNELS 3 Zrotation Yrotation Xrotation
     JOINT RightToeBase
     {
       OFFSET -14.661139 0.000005 0.000000
       CHANNELS 3 Zrotation Yrotation Xrotation
      JOINT RightToeEnd
      {
        OFFSET -7.149781 0.124800 -0.000002
        CHANNELS 3 Zrotation Yrotation Xrotation
      }
     }
    }
   }
  }
 }
}
MOTION
Frames: 4
Frame Time: 0.008333
0.000000 0.000000 0.000000 0.000000 0.000000 0.000000 -1.184787 81.274963 -3.056084 89.358255 4.070272 85.730195 5.881976 2.498555 1.210682 3.398132 1.497109 1.698195 5.096636 -1.979324 -1.389887 12.956388 0.038757 2.095467 -7.654326 -0.710253 -0.031898 -16.630899 1.362583 -4.184029 0.000000 0.000000 0.000000 0.000000 0.000000 0.000000 0.000000 0.000000 0.000000 0.000000 0.000000 0.000000 -79.038206 -60.697491 82.048658 86.144128 -77.211393 -24.810021 25.340718 -0.605746 -0.380580 -5.693895 9.349726 -11.019656 28.126116 -25.557656 50.290953 -17.715232 -16.513267 34.776931 0.000000 -25.538733 0.000000 0.000000 0.000000 0.000000 -0.658380 -0.225259 -3.112784 -4.579095 -16.242734 -0.789354 0.000000 -19.779147 0.000000 -7.063425 -18.085624 -4.518332 0.000000 0.000000 0.000000 -10.653335 -2.302934 -2.159360 13.699383 -23.587298 -1.405480 0.000000 -27.504436 0.000000 -3.675020 -23.768379 -3.876290 0.000000 0.000000 0.000000 -14.894677 -5.059497 -0.151217 21.162563 -21.035633 -3.116382 0.000000 -32.748650 0.000000 -0.399775 -19.648636 2.173004 0.000000 0.000000 0.000000 -18.446696 -16.045550 -0.883540 25.199499 -16.335262 0.966872 0.000000 -24.120000 0.000000 -4.054054 -19.395545 -5.878699 0.000000 0.000000 0.000000 81.999021 -72.233220 98.901709 73.640719 -77.025912 -47.723236 17.280621 -0.296354 -0.413927 -3.571490 10.749961 -19.077488 28.126116 -25.557656 50.290953 -17.715232 -16.513267 34.776931 0.000000 -25.538733 0.000000 0.000000 0.000000 0.000000 -0.658380 -0.225259 -3.112784 -4.579095 -16.242734 -0.789354 0.000000 -19.779147 0.000000 -7.063425 -18.085624 -4.518332 0.000000 0.000000 0.000000 -10.653335 -2.302934 -2.159360 13.699383 -23.587298 -1.405480 0.000000 -27.504436 0.000000 -3.675020 -23.768379 -3.876290 0.000000 0.000000 0.000000 -14.894677 -5.059497 -0.151217 21.162563 -21.035633 -3.116382 0.000000 -32.748650 0.000000 -0.399775 -19.648636 2.173004 0.000000 0.000000 0.000000 -18.446696 -16.045550 -0.883540 25.199499 -16.335262 0.966872 0.000000 -24.120000 0.000000 -4.054054 -19.395545 -5.878699 0.000000 0.000000 0.000000 -172.301828 -2.988657 -7.379760 2.667994 -0.000090 0.000000 -85.900701 0.880429 -4.794876 0.148998 -0.122644 4.368520 0.000000 0.000000 0.000000 7.851906 2.018369 -1.517426 0.826712 0.000000 0.000000 -86.547435 -5.739673 0.024679 -0.465992 -0.119535 4.368548 0.000000 0.000000 0.000000
0.000000 0.000000 0.000000 0.000000 0.000000 0.000000 -1.206132 81.275711 -3.060521 89.347095 4.028867 85.702248 5.843120 2.509524 1.211642 3.416380 1.506981 1.708230 5.096724 -1.980238 -1.396686 12.952194 0.033149 2.109598 -7.661099 -0.723559 -0.015817 -16.637433 1.348023 -4.162171 0.000000 0.000000 0.000000 0.000000 0.000000 0.000000 0.000000 0.000000 0.000000 0.000000 0.000000 0.000000 -79.063800 -60.688707 82.061166 86.019020 -77.204933 -24.685453 25.334314 -0.605638 -0.380598 -5.694130 9.355505 -11.022345 28.126116 -25.557656 50.290953 -17.715232 -16.513267 34.776931 0.000000 -25.538733 0.000000 0.000000 0.000000 0.000000 -0.658380 -0.225259 -3.112784 -4.579095 -16.242734 -0.789354 0.000000 -19.779147 0.000000 -7.063425 -18.085624 -4.518332 0.000000 0.000000 0.000000 -10.653335 -2.302934 -2.159360 13.699383 -23.587298 -1.405480 0.000000 -27.504436 0.000000 -3.675020 -23.768379 -3.876290 0.000000 0.000000 0.000000 -14.894677 -5.059497 -0.151217 21.162563 -21.035633 -3.116382 0.000000 -32.748650 0.000000 -0.399775 -19.648636 2.173004 0.000000 0.000000 0.000000 -18.446696 -16.045550 -0.883540 25.199499 -16.335262 0.966872 0.000000 -24.120000 0.000000 -4.054054 -19.395545 -5.878699 0.000000 0.000000 0.000000 81.891310 -72.256677 98.987372 73.600802 -77.033118 -47.714421 17.296186 -0.296725 -0.414343 -3.550373 10.762571 -19.073580 28.126116 -25.557656 50.290953 -17.715232 -16.513267 34.776931 0.000000 -25.538733 0.000000 0.000000 0.000000 0.000000 -0.658380 -0.225259 -3.112784 -4.579095 -16.242734 -0.789354 0.000000 -19.779147 0.000000 -7.063425 -18.085624 -4.518332 0.000000 0.000000 0.000000 -10.653335 -2.302934 -2.159360 13.699383 -23.587298 -1.405480 0.000000 -27.504436 0.000000 -3.675020 -23.768379 -3.876290 0.000000 0.000000 0.000000 -14.894677 -5.059497 -0.151217 21.162563 -21.035633 -3.116382 0.000000 -32.748650 0.000000 -0.399775 -19.648636 2.173004 0.000000 0.000000 0.000000 -18.446696 -16.045550 -0.883540 25.199499 -16.335262 0.966872 0.000000 -24.120000 0.000000 -4.054054 -19.395545 -5.878699 0.000000 0.000000 0.000000 -172.377838 -3.029232 -7.515463 2.735754 0.000000 0.000000 -85.939600 0.987368 -4.799440 0.169898 -0.122954 4.368515 0.000000 0.000000 0.000000 7.693533 2.047226 -1.505270 1.042534 0.000101 0.000000 -86.651001 -5.727344 0.067646 -0.460793 -0.119597 4.368550 0.000000 0.000000 0.000000
0.000000 0.000000 0.000000 0.000000 0.000000 0.000000 -1.226609 81.278824 -3.065574 89.335440 3.987849 85.673605 5.803258 2.522187 1.213114 3.435143 1.516287 1.718999 5.097032 -1.981510 -1.404231 12.948674 0.028243 2.124409 -7.668342 -0.736157 0.000887 -16.642874 1.332411 -4.140376 0.000000 0.000000 0.000000 0.000000 0.000000 0.000000 0.000000 0.000000 0.000000 0.000000 0.000000 0.000000 -79.088580 -60.679173 82.071702 85.897172 -77.199599 -24.562460 25.327220 -0.605566 -0.380757 -5.694289 9.360608 -11.024355 28.126116 -25.557656 50.290953 -17.715232 -16.513267 34.776931 0.000000 -25.538733 0.000000 0.000000 0.000000 0.000000 -0.658380 -0.225259 -3.112784 -4.579095 -16.242734 -0.789354 0.000000 -19.779147 0.000000 -7.063425 -18.085624 -4.518332 0.000000 0.000000 0.000000 -10.653335 -2.302934 -2.159360 13.699383 -23.587298 -1.405480 0.000000 -27.504436 0.000000 -3.675020 -23.768379 -3.876290 0.000000 0.000000 0.000000 -14.894677 -5.059497 -0.151217 21.162563 -21.035633 -3.116382 0.000000 -32.748650 0.000000 -0.399775 -19.648636 2.173004 0.000000 0.000000 0.000000 -18.446696 -16.045550 -0.883540 25.199499 -16.335262 0.966872 0.000000 -24.120000 0.000000 -4.054054 -19.395545 -5.878699 0.000000 0.000000 0.000000 81.775498 -72.279987 99.080382 73.548155 -77.040516 -47.695219 17.312957 -0.297166 -0.414791 -3.528338 10.775888 -19.069425 28.126116 -25.557656 50.290953 -17.715232 -16.513267 34.776931 0.000000 -25.538733 0.000000 0.000000 0.000000 0.000000 -0.658380 -0.225259 -3.112784 -4.579095 -16.242734 -0.789354 0.000000 -19.779147 0.000000 -7.063425 -18.085624 -4.518332 0.000000 0.000000 0.000000 -10.653335 -2.302934 -2.159360 13.699383 -23.587298 -1.405480 0.000000 -27.504436 0.000000 -3.675020 -23.768379 -3.876290 0.000000 0.000000 0.000000 -14.894677 -5.059497 -0.151217 21.162563 -21.035633 -3.116382 0.000000 -32.748650 0.000000 -0.399775 -19.648636 2.173004 0.000000 0.000000 0.000000 -18.446696 -16.045550 -0.883540 25.199499 -16.335262 0.966872 0.000000 -24.120000 0.000000 -4.054054 -19.395545 -5.878699 0.000000 0.000000 0.000000 -172.452408 -3.070206 -7.652749 2.800180 -0.000241 0.000000 -85.977139 1.094125 -4.801908 0.193297 -0.123279 4.368520 0.000000 0.000000 0.000000 7.536156 2.076879 -1.496050 1.252953 0.000000 0.000000 -86.749556 -5.711246 0.110785 -0.454793 -0.119683 4.368553 0.000000 0.000000 0.000000
0.000000 0.000000 0.000000 0.000000 0.000000 0.000000 -1.250536 81.277992 -3.076319 89.323190 3.945948 85.646450 5.765503 2.533150 1.213476 3.452867 1.526724 1.728323 5.096942 -1.982087 -1.410323 12.945212 0.022374 2.137831 -7.675724 -0.749854 0.016306 -16.650902 1.318195 -4.118078 0.000000 0.000000 0.000000 0.000000 0.000000 0.000000 0.000000 0.000000 0.000000 0.000000 0.000000 0.000000 -79.114989 -60.671118 82.086154 85.770696 -77.191856 -24.438427 25.321312 -0.605450 -0.380863 -5.694407 9.366986 -11.027334 28.126116 -25.557656 50.290953 -17.715232 -16.513267 34.776931 0.000000 -25.538733 0.000000 0.000000 0.000000 0.000000 -0.658380 -0.225259 -3.112784 -4.579095 -16.242734 -0.789354 0.000000 -19.779147 0.000000 -7.063425 -18.085624 -4.518332 0.000000 0.000000 0.000000 -10.653335 -2.302934 -2.159360 13.699383 -23.587298 -1.405480 0.000000 -27.504436 0.000000 -3.675020 -23.768379 -3.876290 0.000000 0.000000 0.000000 -14.894677 -5.059497 -0.151217 21.162563 -21.035633 -3.116382 0.000000 -32.748650 0.000000 -0.399775 -19.648636 2.173004 0.000000 0.000000 0.000000 -18.446696 -16.045550 -0.883540 25.199499 -16.335262 0.966872 0.000000 -24.120000 0.000000 -4.054054 -19.395545 -5.878699 0.000000 0.000000 0.000000 81.672057 -72.303289 99.162821 73.518662 -77.046792 -47.693842 17.327217 -0.297779 -0.415272 -3.508206 10.787616 -19.066112 28.126116 -25.557656 50.290953 -17.715232 -16.513267 34.776931 0.000000 -25.538733 0.000000 0.000000 0.000000 0.000000 -0.658380 -0.225259 -3.112784 -4.579095 -16.242734 -0.789354 0.000000 -19.779147 0.000000 -7.063425 -18.085624 -4.518332 0.000000 0.000000 0.000000 -10.653335 -2.302934 -2.159360 13.699383 -23.587298 -1.405480 0.000000 -27.504436 0.000000 -3.675020 -23.768379 -3.876290 0.000000 0.000000 0.000000 -14.894677 -5.059497 -0.151217 21.162563 -21.035633 -3.116382 0.000000 -32.748650 0.000000 -0.399775 -19.648636 2.173004 0.000000 0.000000 0.000000 -18.446696 -16.045550 -0.883540 25.199499 -16.335262 0.966872 0.000000 -24.120000 0.000000 -4.054054 -19.395545 -5.878699 0.000000 0.000000 0.000000 -172.531637 -3.112368 -7.786579 2.872028 -0.000283 0.000000 -86.016275 1.201204 -4.808785 0.211591 -0.123546 4.368516 0.000000 0.000000 0.000000 7.383632 2.107116 -1.480933 1.455235 0.000000 0.000000 -86.845960 -5.702462 0.153378 -0.450391 -0.119752 4.368550 0.000000 0.000000 0.000000
